<?xml version="1.0" standalone="no"?><!DOCTYPE svg PUBLIC "-//W3C//DTD SVG 1.1//EN" "http://www.w3.org/Graphics/SVG/1.1/DTD/svg11.dtd"><svg class="icon" width="200px" height="200.00px" viewBox="0 0 1024 1024" version="1.1" xmlns="http://www.w3.org/2000/svg"><path d="M220.3 798.3l-16.7 5.3s-21-18.5-27.6-35.5-10-33.6-10-33.6l16.6-10.4 37.7 74.2z" fill="#DEE5DA" /><path d="M182.6 724.2l37.6 74.2-16.7 5.3s-21-18.5-27.6-35.5c-6.6-17-10-33.6-10-33.6l16.7-10.4m0-18c-3.3 0-6.7 0.9-9.6 2.7l-16.6 10.4c-6.4 4-9.6 11.5-8.1 18.9 0.2 0.7 3.8 18.3 10.8 36.5 7.9 20.5 30 40.3 32.5 42.5 3.3 2.9 7.6 4.5 11.9 4.5 1.8 0 3.7-0.3 5.5-0.8l16.7-5.3c5-1.6 9.1-5.3 11.1-10.2 2-4.9 1.8-10.4-0.6-15.1L198.7 716c-2.3-4.5-6.4-7.8-11.2-9.2-1.6-0.4-3.2-0.6-4.9-0.6z" fill="#1A1A1A" /><path d="M476.5 528s-184.9 284.3-242 262.7c-57.1-21.6-84.6-61-14.2-108.6C290.8 634.5 476.5 528 476.5 528z" fill="#DEE5DA" /><path d="M476.5 528S304.9 791.9 241.3 791.9c-2.4 0-4.7-0.4-6.8-1.2-57.1-21.6-84.6-61-14.2-108.6C290.8 634.5 476.5 528 476.5 528m0-18c-3.1 0-6.2 0.8-9 2.4-7.6 4.4-187.1 107.5-257.3 154.8-36 24.3-52.6 49.8-49.6 75.9 3.1 26.6 26.4 48.9 67.5 64.4 4.1 1.5 8.5 2.3 13.1 2.3 20 0 44.2-14.8 76.3-46.4 22.7-22.5 49.5-53.6 79.5-92.5 50.7-65.8 94.1-132.5 94.6-133.1 4.5-7 3.7-16.1-2-22.2-3.5-3.7-8.3-5.6-13.1-5.6z m0 36z" fill="#1A1A1A" /><path d="M258.8 666.1s172.6-26.4 183.5-100.3c0 0 151.3-65.4 160.4-126.5 0 0 115.6-58.7 100.5-122.2 0 0 55.7-70.2-1.2-104.1s-103 3.6-103 3.6-67.2-5.4-118.6 64.1-65.4 121-65.4 121-35.7-1.8-56.9 47.2c0 0-56.3 43-59.9 103.5l-39.4 113.7z" fill="#A3DA67" /><path d="M653 198.8c14.5 0 31.2 3.6 48.9 14.2 56.9 33.9 1.2 104.1 1.2 104.1 15.1 63.5-100.5 122.2-100.5 122.2-9.1 61.1-160.4 126.5-160.4 126.5-10.9 73.8-183.5 100.3-183.5 100.3l39.5-113.6c3.7-60.5 60-103.5 60-103.5 19.7-45.6 52-47.2 56.4-47.2h0.5s13.9-51.4 65.4-121c44.5-60.2 100.7-64.2 115.1-64.2 2.3 0 3.5 0.1 3.5 0.1s21.8-17.9 53.9-17.9m0-18c-28.1 0-49.7 11.4-59.5 17.7-20.3 0.4-80.2 7.5-127.5 71.5-39 52.8-57.3 95.7-64.4 115.4-5.2 1.2-11.4 3.4-18 7-16.7 9.2-30.2 24.4-39.9 45.2-13.5 11.4-58.3 53.4-63 111.1L242 660c-2.1 6-0.9 12.6 3.2 17.4 3.4 4.1 8.5 6.5 13.8 6.5 0.9 0 1.8-0.1 2.7-0.2 1.8-0.3 45.4-7.1 91-23.3 59.9-21.3 95.2-48.9 105.4-82 13.6-6.3 41.7-19.9 70.7-37.7 23.7-14.6 43.1-29 57.7-42.9 16.9-16.1 27.5-31.4 32.2-46.6 10.8-6.1 31.7-18.7 51.8-35.5 17.2-14.4 30.4-29.1 39.1-43.5 10.4-17.2 14.7-34.2 12.9-50.8 3.1-4.6 7.3-11.4 11.2-19.3 10.6-21.5 14.3-41.4 11-59.1-3.5-18.9-15-34.6-33.3-45.5-18.9-11-38.4-16.7-58.4-16.7z" fill="#1A1A1A" /><path d="M258.8 666.1s172.6-26.4 183.5-100.3c0 0 151.3-65.4 160.4-126.5 0 0 115.6-58.7 100.5-122.2 0 0 55.7-70.2-1.2-104.1-7.6 21.6-10.1 40.8-34.9 63.6s-54.6 14.5-94 50C456.3 431.9 258.8 666.1 258.8 666.1z" fill="#6AA345" /><path d="M556.4 351.3L265.5 711.2s-12.3 1.5-36.4 14.6c-8.8 5.1-43.3 29.1-31.3 45.8C179.7 751 142.1 701.4 262 584s284.4-250.5 284.4-250.5l10 17.8z" fill="#DFEFE9" /><path d="M546.4 333.4l10 17.8-290.9 360s-12.3 1.5-36.4 14.6c-8.8 5.1-43.3 29.1-31.3 45.8C179.7 751 142.1 701.4 262 584c119.8-117.4 284.4-250.6 284.4-250.6m0-18c-4.1 0-8.1 1.4-11.3 4-1.7 1.3-166.6 135-285.7 251.7-28.9 28.3-51.1 55.1-65.9 79.5-13.3 21.8-21.1 42.5-23.2 61.5-4.4 39.2 16.3 62.6 24.1 71.4 3.5 4 8.5 6.1 13.5 6.1 3.9 0 7.9-1.3 11.2-3.9 6.8-5.4 8.7-14.9 4.7-22.4 1-1.9 3.6-5.6 9.3-10.7 5.5-5 11.8-9.3 14.9-11 18.4-9.9 28.5-12.1 30-12.4 4.8-0.4 8.6-2.8 11.6-6.5l290.8-359.9c4.6-5.7 5.3-13.7 1.7-20.1l-10-17.8c-2.6-4.6-7.1-7.9-12.3-8.9-1.1-0.5-2.3-0.6-3.4-0.6z" fill="#1A1A1A" /><path d="M556.4 351.3L265.5 711.2s-12.3 1.5-36.4 14.6c-8.8 5.1-43.3 29.1-31.3 45.8-18.2-20.6 35.2-106 98.8-175.9C409.5 471.6 551 341.6 551 341.6l5.4 9.7z" fill="#CAD1DB" /><path d="M459.2 749.6s138.6-43.4 220.9-125.7l85.6-85.6s56.2-64.8 69.8-120.2-1-100.1-1-100.1 15.1-24.4-18.3-43.5-108 47.7-112.3 62.5c-4.3 14.8-32.2 3.1-89.7 49.7s-93 137.5-93 137.5-60.6 6.6-107 58.9c-46.4 52.2-130 129.6-130 129.6l175 36.9z" fill="#A3DA67" /><path d="M802.1 271c5.2 0 9.9 1.1 14.1 3.4 33.4 19.1 18.3 43.5 18.3 43.5s14.7 44.8 1.1 100.2c-13.6 55.4-69.8 120.2-69.8 120.2l-85.6 85.6c-82.3 82.3-220.9 125.7-220.9 125.7l-175.1-37s83.7-77.4 130-129.6c46.4-52.2 107-58.9 107-58.9s35.5-90.9 93-137.5c57.5-46.6 85.4-35 89.7-49.7 3.7-12.9 61.5-65.9 98.2-65.9m0-18c-25.4 0-53.4 17.3-72.4 31.8-5.9 4.5-33.9 26.4-41.7 43.4-1.7 0.6-4.2 1.4-6.4 2-15.6 4.6-41.7 12.4-78.8 42.5-49.9 40.4-83.4 110.1-94.5 135.5-21.1 4.6-68.8 19.2-107.6 62.9-45.2 50.9-128 127.6-128.8 128.3-4.9 4.6-6.9 11.5-5.1 18 1.8 6.5 7 11.4 13.6 12.8l175.1 37c1.2 0.3 2.5 0.4 3.7 0.4 1.8 0 3.6-0.3 5.4-0.8 1.5-0.5 36.3-11.5 81.9-32.9 26.8-12.6 51.7-26.2 74.1-40.5 28.3-18 52.6-37.1 72.3-56.8l85.6-85.6 0.9-0.9c2.4-2.8 59.2-68.8 73.7-127.7 11.7-47.4 4.3-87.6 0.4-103.2 2-6.1 3.7-15.2 1.1-25.4-3.5-14-13.4-25.7-29.4-34.9-6.8-3.9-14.5-5.9-23.1-5.9z" fill="#1A1A1A" /><path d="M459.2 749.6s138.6-43.4 220.9-125.7l85.6-85.6s56.2-64.8 69.8-120.2c5.7-23.2 6.4-44.6 5.3-61.6-9.2-19.2-77.7 2.9-91.4 59.2-4.3 14.8-32.2 3.1-89.7 49.7s-93 137.5-93 137.5-60.6 6.6-107 58.9c-46.4 52.2-175.8 50.8-175.8 50.8l175.3 37z" fill="#6AA345" /><path d="M877.4 397.4c-28-1-73.2-8.9-89.4 42.1-16.2 51 12.9 80 12.9 80s-54.2-12.5-95.1 32c-40.8 44.5-45.4 87.2-68.7 99-23.3 11.8-42.5 14.4-79.2 44.4-36.8 30.1-90.7 33.1-90.7 33.1s-41.5 29.1-48.5 33.1c27.3 2.6 275.1-78.9 402.5-234.2 99.5-121.3 56.2-129.5 56.2-129.5z" fill="#A3DA67" /><path d="M902.5 399.3c-4.4-12.3-14.5-18.3-21.7-19.6-0.9-0.2-1.8-0.3-2.7-0.3-2.4-0.1-5.1-0.2-7.9-0.4-5.4-0.3-11.6-0.6-17.9-0.6-11.7 0-29.2 1-45.5 9.7-17 9.1-29.1 24.6-35.9 46-8.8 27.6-6.3 50.1-0.9 66.5-10 1-19.7 3.2-29.1 6.5-18.5 6.6-34.7 17.4-48.4 32.3-22.2 24.2-34.3 47.5-43.9 66.1-7.1 13.8-13.3 25.8-19.7 29-5.7 2.9-11.4 5.3-17.3 7.8-17 7.1-36.4 15.2-65.2 38.8-31.6 25.8-79.9 29-80.3 29-3.3 0.2-6.5 1.3-9.3 3.2-17 11.9-42.8 29.7-47.1 32.2-6.8 3.9-10.3 11.8-8.6 19.4 1.7 7.7 8.1 13.4 15.9 14.1 1 0.1 2 0.1 3.1 0.1 23.4 0 98.8-24.8 174-61.6 43-21.1 96.2-51 146.8-89.7 3.7-2.8 4.6-8 2.1-11.9 0-0.1-0.1-0.1-0.1-0.2-2.8-4.3-8.7-5.3-12.8-2.2C603.3 710.4 446.5 761.2 420 761.2c-0.5 0-1 0-1.4-0.1 7-4 48.5-33.1 48.5-33.1s53.9-3 90.7-33.1c36.8-30.1 55.9-32.6 79.2-44.4 23.3-11.8 27.9-54.5 68.7-99 26.2-28.5 57.8-33.6 77.2-33.6 10.9 0 17.9 1.6 17.9 1.6s-29-29-12.9-80c11.9-37.4 39.4-43.2 64.2-43.2 9 0 17.7 0.8 25.1 1 0 0 43.3 8.3-56.3 129.6-13.1 15.9-27.4 31.1-42.7 45.5-3 2.8-3.6 7.3-1.6 10.9l0.1 0.2c2.9 5 9.6 6 13.8 2.1 15.7-14.8 30.6-30.5 44.3-47.2 29.3-35.7 49.6-65.7 60.3-89.2 9.7-20.7 12-37.1 7.4-49.9z" fill="#1A1A1A" /><path d="M877.4 397.4c-28-1-30.6 8-46.8 59-16.2 51-10.2 48-24.4 66.7-14.2 18.6-21.5 8.1-63.4 40.3-37.3 28.7-94.7 81.6-105.7 87.2-23.3 11.8-42.5 14.4-79.2 44.4-36.8 30.1-90.7 33.1-90.7 33.1s-41.5 29.1-48.5 33.1c27.3 2.6 275.1-78.9 402.5-234.2 99.5-121.4 56.2-129.6 56.2-129.6z" fill="#6AA345" /><path d="M660.4 523.1S513.3 715.9 393.5 772.8c-82.7 39.3-132.1 47.2-163.7 30.9-14.2-7.3-28-22-32.1-32.1-5.5-13.6 8.2-31.9 34.2-45.7 36.4-19.3 91.4-52 143.7-71.8 89.6-33.9 273.3-142.5 273.3-142.5l11.5 11.5z" fill="#DFEFE9" /><path d="M648.9 511.6l11.5 11.5S513.3 715.9 393.5 772.8c-56.1 26.7-96.9 38.9-127.2 38.9-14.3 0-26.3-2.7-36.5-8-14.2-7.3-28-22-32.1-32.1-5.5-13.6 8.2-31.9 34.2-45.7 36.4-19.3 91.4-52 143.7-71.8 89.6-33.9 273.3-142.5 273.3-142.5m0-18c-3.1 0-6.3 0.8-9.2 2.5-1.8 1.1-183.4 108.3-270.5 141.2-42 15.9-85.1 39.5-119.7 58.5-9.4 5.1-18.2 10-26.1 14.2-15.1 8-27.1 17.7-34.9 28-10 13.4-12.7 27.7-7.6 40.4 6 14.7 23.4 32.5 40.5 41.3 13 6.7 27.6 10 44.7 10 33.7 0 76.6-12.9 134.9-40.6 28.8-13.7 61.1-35.7 96.2-65.6 27.6-23.5 57.1-52 87.6-84.6C636.6 583.6 673 536 674.5 534c5.5-7.2 4.8-17.3-1.6-23.6l-11.5-11.5c-3.2-3.5-7.8-5.3-12.5-5.3z" fill="#1A1A1A" /><path d="M660.4 523.1S513.3 715.9 393.5 772.8c-82.7 39.3-132.1 47.2-163.7 30.9-14.2-7.3-28-22-32.1-32.1-5.5-13.6 15.5 35.4 155.4-28.2s307.3-220.3 307.3-220.3z" fill="#CAD1DB" /></svg>